{
    "asset" : {
        "generator" : "Khronos glTF Blender I/O v1.0.5",
        "version" : "2.0"
    },
    "scene" : 0,
    "scenes" : [
        {
            "name" : "Scene",
            "nodes" : [
                5,
                6
            ]
        }
    ],
    "nodes" : [
        {
            "name" : "Bottom",
            "translation" : [
                0,
                0,
                1
            ]
        },
        {
            "name" : "Top",
            "scale" : [
                1.0000230073928833,
                1.0000230073928833,
                1.0000230073928833
            ],
            "translation" : [
                0,
                1.0001280307769775,
                1
            ]
        },
        {
            "children" : [
                0,
                1
            ],
            "name" : "Root",
            "translation" : [
                0,
                0,
                -1
            ]
        },
        {
            "mesh" : 0,
            "name" : "Cube",
            "skin" : 0
        },
        {
            "name" : "Lamp",
            "rotation" : [
                0.16907580196857452,
                0.7558802962303162,
                -0.2721713185310364,
                0.570947527885437
            ],
            "translation" : [
                -2.6678524017333984,
                3.8707027435302734,
                3.3492133617401123
            ]
        },
        {
            "children" : [
                3,
                4,
                2
            ],
            "name" : "Armature"
        },
        {
            "name" : "Camera",
            "rotation" : [
                0.5458257794380188,
                -0.18474623560905457,
                0.09925378113985062,
                0.8112285733222961
            ],
            "translation" : [
                -3.1704390048980713,
                4.090931415557861,
                7.043276786804199
            ]
        }
    ],
    "animations" : [
        {
            "channels" : [
                {
                    "sampler" : 0,
                    "target" : {
                        "node" : 2,
                        "path" : "translation"
                    }
                },
                {
                    "sampler" : 1,
                    "target" : {
                        "node" : 2,
                        "path" : "rotation"
                    }
                },
                {
                    "sampler" : 2,
                    "target" : {
                        "node" : 2,
                        "path" : "scale"
                    }
                },
                {
                    "sampler" : 3,
                    "target" : {
                        "node" : 0,
                        "path" : "translation"
                    }
                },
                {
                    "sampler" : 4,
                    "target" : {
                        "node" : 0,
                        "path" : "rotation"
                    }
                },
                {
                    "sampler" : 5,
                    "target" : {
                        "node" : 0,
                        "path" : "scale"
                    }
                },
                {
                    "sampler" : 6,
                    "target" : {
                        "node" : 1,
                        "path" : "translation"
                    }
                },
                {
                    "sampler" : 7,
                    "target" : {
                        "node" : 1,
                        "path" : "rotation"
                    }
                },
                {
                    "sampler" : 8,
                    "target" : {
                        "node" : 1,
                        "path" : "scale"
                    }
                }
            ],
            "name" : "IdleBreathing",
            "samplers" : [
                {
                    "input" : 7,
                    "interpolation" : "LINEAR",
                    "output" : 8
                },
                {
                    "input" : 7,
                    "interpolation" : "LINEAR",
                    "output" : 9
                },
                {
                    "input" : 7,
                    "interpolation" : "LINEAR",
                    "output" : 10
                },
                {
                    "input" : 7,
                    "interpolation" : "LINEAR",
                    "output" : 11
                },
                {
                    "input" : 7,
                    "interpolation" : "LINEAR",
                    "output" : 12
                },
                {
                    "input" : 7,
                    "interpolation" : "LINEAR",
                    "output" : 13
                },
                {
                    "input" : 7,
                    "interpolation" : "LINEAR",
                    "output" : 14
                },
                {
                    "input" : 7,
                    "interpolation" : "LINEAR",
                    "output" : 15
                },
                {
                    "input" : 7,
                    "interpolation" : "LINEAR",
                    "output" : 16
                }
            ]
        },
        {
            "channels" : [
                {
                    "sampler" : 0,
                    "target" : {
                        "node" : 2,
                        "path" : "translation"
                    }
                },
                {
                    "sampler" : 1,
                    "target" : {
                        "node" : 2,
                        "path" : "rotation"
                    }
                },
                {
                    "sampler" : 2,
                    "target" : {
                        "node" : 2,
                        "path" : "scale"
                    }
                },
                {
                    "sampler" : 3,
                    "target" : {
                        "node" : 0,
                        "path" : "translation"
                    }
                },
                {
                    "sampler" : 4,
                    "target" : {
                        "node" : 0,
                        "path" : "rotation"
                    }
                },
                {
                    "sampler" : 5,
                    "target" : {
                        "node" : 0,
                        "path" : "scale"
                    }
                },
                {
                    "sampler" : 6,
                    "target" : {
                        "node" : 1,
                        "path" : "translation"
                    }
                },
                {
                    "sampler" : 7,
                    "target" : {
                        "node" : 1,
                        "path" : "rotation"
                    }
                },
                {
                    "sampler" : 8,
                    "target" : {
                        "node" : 1,
                        "path" : "scale"
                    }
                }
            ],
            "name" : "LookRightLeft",
            "samplers" : [
                {
                    "input" : 17,
                    "interpolation" : "LINEAR",
                    "output" : 18
                },
                {
                    "input" : 17,
                    "interpolation" : "LINEAR",
                    "output" : 19
                },
                {
                    "input" : 17,
                    "interpolation" : "LINEAR",
                    "output" : 20
                },
                {
                    "input" : 17,
                    "interpolation" : "LINEAR",
                    "output" : 21
                },
                {
                    "input" : 17,
                    "interpolation" : "LINEAR",
                    "output" : 22
                },
                {
                    "input" : 17,
                    "interpolation" : "LINEAR",
                    "output" : 23
                },
                {
                    "input" : 17,
                    "interpolation" : "LINEAR",
                    "output" : 24
                },
                {
                    "input" : 17,
                    "interpolation" : "LINEAR",
                    "output" : 25
                },
                {
                    "input" : 17,
                    "interpolation" : "LINEAR",
                    "output" : 26
                }
            ]
        },
        {
            "channels" : [
                {
                    "sampler" : 0,
                    "target" : {
                        "node" : 2,
                        "path" : "translation"
                    }
                },
                {
                    "sampler" : 1,
                    "target" : {
                        "node" : 2,
                        "path" : "rotation"
                    }
                },
                {
                    "sampler" : 2,
                    "target" : {
                        "node" : 2,
                        "path" : "scale"
                    }
                },
                {
                    "sampler" : 3,
                    "target" : {
                        "node" : 0,
                        "path" : "translation"
                    }
                },
                {
                    "sampler" : 4,
                    "target" : {
                        "node" : 0,
                        "path" : "rotation"
                    }
                },
                {
                    "sampler" : 5,
                    "target" : {
                        "node" : 0,
                        "path" : "scale"
                    }
                },
                {
                    "sampler" : 6,
                    "target" : {
                        "node" : 1,
                        "path" : "translation"
                    }
                },
                {
                    "sampler" : 7,
                    "target" : {
                        "node" : 1,
                        "path" : "rotation"
                    }
                },
                {
                    "sampler" : 8,
                    "target" : {
                        "node" : 1,
                        "path" : "scale"
                    }
                }
            ],
            "name" : "LookRightUp",
            "samplers" : [
                {
                    "input" : 27,
                    "interpolation" : "LINEAR",
                    "output" : 28
                },
                {
                    "input" : 27,
                    "interpolation" : "LINEAR",
                    "output" : 29
                },
                {
                    "input" : 27,
                    "interpolation" : "LINEAR",
                    "output" : 30
                },
                {
                    "input" : 27,
                    "interpolation" : "LINEAR",
                    "output" : 31
                },
                {
                    "input" : 27,
                    "interpolation" : "LINEAR",
                    "output" : 32
                },
                {
                    "input" : 27,
                    "interpolation" : "LINEAR",
                    "output" : 33
                },
                {
                    "input" : 27,
                    "interpolation" : "LINEAR",
                    "output" : 34
                },
                {
                    "input" : 27,
                    "interpolation" : "LINEAR",
                    "output" : 35
                },
                {
                    "input" : 27,
                    "interpolation" : "LINEAR",
                    "output" : 36
                }
            ]
        }
    ],
    "materials" : [
        {
            "doubleSided" : true,
            "name" : "Material",
            "pbrMetallicRoughness" : {
                "baseColorTexture" : {
                    "index" : 0,
                    "texCoord" : 0
                },
                "metallicFactor" : 0,
                "roughnessFactor" : 0.5
            }
        }
    ],
    "meshes" : [
        {
            "name" : "Cube",
            "primitives" : [
                {
                    "attributes" : {
                        "POSITION" : 0,
                        "NORMAL" : 1,
                        "TEXCOORD_0" : 2,
                        "JOINTS_0" : 3,
                        "WEIGHTS_0" : 4
                    },
                    "indices" : 5,
                    "material" : 0
                }
            ]
        }
    ],
    "textures" : [
        {
            "source" : 0
        }
    ],
    "images" : [
        {
            "bufferView" : 6,
            "mimeType" : "image/png",
            "name" : "GooeyTexture"
        }
    ],
    "skins" : [
        {
            "inverseBindMatrices" : 6,
            "joints" : [
                2,
                0,
                1
            ],
            "name" : "Armature"
        }
    ],
    "accessors" : [
        {
            "bufferView" : 0,
            "componentType" : 5126,
            "count" : 296,
            "max" : [
                1.0368181467056274,
                2.212170124053955,
                1.1784063577651978
            ],
            "min" : [
                -1.1545093059539795,
                0.016546785831451416,
                -1.1072665452957153
            ],
            "type" : "VEC3"
        },
        {
            "bufferView" : 1,
            "componentType" : 5126,
            "count" : 296,
            "type" : "VEC3"
        },
        {
            "bufferView" : 2,
            "componentType" : 5126,
            "count" : 296,
            "type" : "VEC2"
        },
        {
            "bufferView" : 3,
            "componentType" : 5123,
            "count" : 296,
            "type" : "VEC4"
        },
        {
            "bufferView" : 4,
            "componentType" : 5126,
            "count" : 296,
            "type" : "VEC4"
        },
        {
            "bufferView" : 5,
            "componentType" : 5123,
            "count" : 1290,
            "type" : "SCALAR"
        },
        {
            "bufferView" : 7,
            "componentType" : 5126,
            "count" : 3,
            "type" : "MAT4"
        },
        {
            "bufferView" : 8,
            "componentType" : 5126,
            "count" : 116,
            "max" : [
                4.916666666666667
            ],
            "min" : [
                0.125
            ],
            "type" : "SCALAR"
        },
        {
            "bufferView" : 9,
            "componentType" : 5126,
            "count" : 116,
            "type" : "VEC3"
        },
        {
            "bufferView" : 10,
            "componentType" : 5126,
            "count" : 116,
            "type" : "VEC4"
        },
        {
            "bufferView" : 11,
            "componentType" : 5126,
            "count" : 116,
            "type" : "VEC3"
        },
        {
            "bufferView" : 12,
            "componentType" : 5126,
            "count" : 116,
            "type" : "VEC3"
        },
        {
            "bufferView" : 13,
            "componentType" : 5126,
            "count" : 116,
            "type" : "VEC4"
        },
        {
            "bufferView" : 14,
            "componentType" : 5126,
            "count" : 116,
            "type" : "VEC3"
        },
        {
            "bufferView" : 15,
            "componentType" : 5126,
            "count" : 116,
            "type" : "VEC3"
        },
        {
            "bufferView" : 16,
            "componentType" : 5126,
            "count" : 116,
            "type" : "VEC4"
        },
        {
            "bufferView" : 17,
            "componentType" : 5126,
            "count" : 116,
            "type" : "VEC3"
        },
        {
            "bufferView" : 18,
            "componentType" : 5126,
            "count" : 130,
            "max" : [
                5.458333333333333
            ],
            "min" : [
                0.08333333333333333
            ],
            "type" : "SCALAR"
        },
        {
            "bufferView" : 19,
            "componentType" : 5126,
            "count" : 130,
            "type" : "VEC3"
        },
        {
            "bufferView" : 20,
            "componentType" : 5126,
            "count" : 130,
            "type" : "VEC4"
        },
        {
            "bufferView" : 21,
            "componentType" : 5126,
            "count" : 130,
            "type" : "VEC3"
        },
        {
            "bufferView" : 22,
            "componentType" : 5126,
            "count" : 130,
            "type" : "VEC3"
        },
        {
            "bufferView" : 23,
            "componentType" : 5126,
            "count" : 130,
            "type" : "VEC4"
        },
        {
            "bufferView" : 24,
            "componentType" : 5126,
            "count" : 130,
            "type" : "VEC3"
        },
        {
            "bufferView" : 25,
            "componentType" : 5126,
            "count" : 130,
            "type" : "VEC3"
        },
        {
            "bufferView" : 26,
            "componentType" : 5126,
            "count" : 130,
            "type" : "VEC4"
        },
        {
            "bufferView" : 27,
            "componentType" : 5126,
            "count" : 130,
            "type" : "VEC3"
        },
        {
            "bufferView" : 28,
            "componentType" : 5126,
            "count" : 76,
            "max" : [
                3.125
            ],
            "min" : [
                0
            ],
            "type" : "SCALAR"
        },
        {
            "bufferView" : 29,
            "componentType" : 5126,
            "count" : 76,
            "type" : "VEC3"
        },
        {
            "bufferView" : 30,
            "componentType" : 5126,
            "count" : 76,
            "type" : "VEC4"
        },
        {
            "bufferView" : 31,
            "componentType" : 5126,
            "count" : 76,
            "type" : "VEC3"
        },
        {
            "bufferView" : 32,
            "componentType" : 5126,
            "count" : 76,
            "type" : "VEC3"
        },
        {
            "bufferView" : 33,
            "componentType" : 5126,
            "count" : 76,
            "type" : "VEC4"
        },
        {
            "bufferView" : 34,
            "componentType" : 5126,
            "count" : 76,
            "type" : "VEC3"
        },
        {
            "bufferView" : 35,
            "componentType" : 5126,
            "count" : 76,
            "type" : "VEC3"
        },
        {
            "bufferView" : 36,
            "componentType" : 5126,
            "count" : 76,
            "type" : "VEC4"
        },
        {
            "bufferView" : 37,
            "componentType" : 5126,
            "count" : 76,
            "type" : "VEC3"
        }
    ],
    "bufferViews" : [
        {
            "buffer" : 0,
            "byteLength" : 3552,
            "byteOffset" : 0
        },
        {
            "buffer" : 0,
            "byteLength" : 3552,
            "byteOffset" : 3552
        },
        {
            "buffer" : 0,
            "byteLength" : 2368,
            "byteOffset" : 7104
        },
        {
            "buffer" : 0,
            "byteLength" : 2368,
            "byteOffset" : 9472
        },
        {
            "buffer" : 0,
            "byteLength" : 4736,
            "byteOffset" : 11840
        },
        {
            "buffer" : 0,
            "byteLength" : 2580,
            "byteOffset" : 16576
        },
        {
            "buffer" : 0,
            "byteLength" : 6558,
            "byteOffset" : 19156
        },
        {
            "buffer" : 0,
            "byteLength" : 192,
            "byteOffset" : 25716
        },
        {
            "buffer" : 0,
            "byteLength" : 464,
            "byteOffset" : 25908
        },
        {
            "buffer" : 0,
            "byteLength" : 1392,
            "byteOffset" : 26372
        },
        {
            "buffer" : 0,
            "byteLength" : 1856,
            "byteOffset" : 27764
        },
        {
            "buffer" : 0,
            "byteLength" : 1392,
            "byteOffset" : 29620
        },
        {
            "buffer" : 0,
            "byteLength" : 1392,
            "byteOffset" : 31012
        },
        {
            "buffer" : 0,
            "byteLength" : 1856,
            "byteOffset" : 32404
        },
        {
            "buffer" : 0,
            "byteLength" : 1392,
            "byteOffset" : 34260
        },
        {
            "buffer" : 0,
            "byteLength" : 1392,
            "byteOffset" : 35652
        },
        {
            "buffer" : 0,
            "byteLength" : 1856,
            "byteOffset" : 37044
        },
        {
            "buffer" : 0,
            "byteLength" : 1392,
            "byteOffset" : 38900
        },
        {
            "buffer" : 0,
            "byteLength" : 520,
            "byteOffset" : 40292
        },
        {
            "buffer" : 0,
            "byteLength" : 1560,
            "byteOffset" : 40812
        },
        {
            "buffer" : 0,
            "byteLength" : 2080,
            "byteOffset" : 42372
        },
        {
            "buffer" : 0,
            "byteLength" : 1560,
            "byteOffset" : 44452
        },
        {
            "buffer" : 0,
            "byteLength" : 1560,
            "byteOffset" : 46012
        },
        {
            "buffer" : 0,
            "byteLength" : 2080,
            "byteOffset" : 47572
        },
        {
            "buffer" : 0,
            "byteLength" : 1560,
            "byteOffset" : 49652
        },
        {
            "buffer" : 0,
            "byteLength" : 1560,
            "byteOffset" : 51212
        },
        {
            "buffer" : 0,
            "byteLength" : 2080,
            "byteOffset" : 52772
        },
        {
            "buffer" : 0,
            "byteLength" : 1560,
            "byteOffset" : 54852
        },
        {
            "buffer" : 0,
            "byteLength" : 304,
            "byteOffset" : 56412
        },
        {
            "buffer" : 0,
            "byteLength" : 912,
            "byteOffset" : 56716
        },
        {
            "buffer" : 0,
            "byteLength" : 1216,
            "byteOffset" : 57628
        },
        {
            "buffer" : 0,
            "byteLength" : 912,
            "byteOffset" : 58844
        },
        {
            "buffer" : 0,
            "byteLength" : 912,
            "byteOffset" : 59756
        },
        {
            "buffer" : 0,
            "byteLength" : 1216,
            "byteOffset" : 60668
        },
        {
            "buffer" : 0,
            "byteLength" : 912,
            "byteOffset" : 61884
        },
        {
            "buffer" : 0,
            "byteLength" : 912,
            "byteOffset" : 62796
        },
        {
            "buffer" : 0,
            "byteLength" : 1216,
            "byteOffset" : 63708
        },
        {
            "buffer" : 0,
            "byteLength" : 912,
            "byteOffset" : 64924
        }
    ],
    "buffers" : [
        {
            "byteLength" : 65836,
            "uri" : "data:application/octet-stream;base64,"
        }
    ]
}
